<mxfile host="app.diagrams.net" agent="Mozilla/5.0 (Windows NT 10.0; Win64; x64) AppleWebKit/537.36 (KHTML, like Gecko) Chrome/127.0.0.0 Safari/537.36" border="50" scale="3" compressed="false" locked="false" version="24.7.6">
  <diagram name="Blank" id="YmL12bMKpDGza6XwsDPr">
    <mxGraphModel dx="1514" dy="1366" grid="0" gridSize="10" guides="1" tooltips="1" connect="1" arrows="1" fold="1" page="0" pageScale="1" pageWidth="827" pageHeight="1169" background="none" math="1" shadow="0">
      <root>
        <mxCell id="X5NqExCQtvZxIxQ7pmgY-0" />
        <mxCell id="1" parent="X5NqExCQtvZxIxQ7pmgY-0" />
        <mxCell id="Gr0Zq-AI6Quabplr0KPa-179" value="" style="swimlane;html=1;startSize=20;horizontal=1;containerType=tree;labelBackgroundColor=none;strokeColor=#D4E1F5;strokeWidth=1;fillColor=none;fontFamily=Comic Sans MS;fontSize=9;swimlaneLine=0;dashed=1;collapsible=0;swimlaneFillColor=default;" parent="1" vertex="1">
          <mxGeometry x="-227" y="-645" width="1165" height="1293" as="geometry" />
        </mxCell>
        <mxCell id="Liw7ZN7XDZ7YaYjhqiWV-25" value="预算系统" style="rounded=0;whiteSpace=wrap;html=1;fillColor=#dae8fc;strokeColor=#6c8ebf;" parent="Gr0Zq-AI6Quabplr0KPa-179" vertex="1">
          <mxGeometry x="14" y="384" width="83" height="41" as="geometry" />
        </mxCell>
        <mxCell id="Liw7ZN7XDZ7YaYjhqiWV-26" value="" style="edgeStyle=entityRelationEdgeStyle;rounded=0;orthogonalLoop=1;jettySize=auto;html=1;curved=1;" parent="Gr0Zq-AI6Quabplr0KPa-179" source="Liw7ZN7XDZ7YaYjhqiWV-25" target="Liw7ZN7XDZ7YaYjhqiWV-27" edge="1">
          <mxGeometry relative="1" as="geometry" />
        </mxCell>
        <mxCell id="Liw7ZN7XDZ7YaYjhqiWV-27" value="预算编制" style="rounded=0;whiteSpace=wrap;html=1;fillColor=#FFD2B0;strokeColor=#d79b00;" parent="Gr0Zq-AI6Quabplr0KPa-179" vertex="1">
          <mxGeometry x="196" y="159" width="83" height="41" as="geometry" />
        </mxCell>
        <mxCell id="Liw7ZN7XDZ7YaYjhqiWV-28" value="" style="edgeStyle=orthogonalEdgeStyle;rounded=0;orthogonalLoop=1;jettySize=auto;html=1;curved=1;entryX=0;entryY=0.5;entryDx=0;entryDy=0;" parent="Gr0Zq-AI6Quabplr0KPa-179" source="Liw7ZN7XDZ7YaYjhqiWV-25" target="Liw7ZN7XDZ7YaYjhqiWV-29" edge="1">
          <mxGeometry relative="1" as="geometry" />
        </mxCell>
        <mxCell id="Liw7ZN7XDZ7YaYjhqiWV-29" value="预算审批" style="rounded=0;whiteSpace=wrap;html=1;fillColor=#95C8FC;strokeColor=#6c8ebf;" parent="Gr0Zq-AI6Quabplr0KPa-179" vertex="1">
          <mxGeometry x="221" y="466.0000000000001" width="83" height="41" as="geometry" />
        </mxCell>
        <mxCell id="Liw7ZN7XDZ7YaYjhqiWV-30" value="" style="edgeStyle=orthogonalEdgeStyle;rounded=0;orthogonalLoop=1;jettySize=auto;html=1;curved=1;entryX=0;entryY=0.5;entryDx=0;entryDy=0;" parent="Gr0Zq-AI6Quabplr0KPa-179" source="Liw7ZN7XDZ7YaYjhqiWV-25" target="Liw7ZN7XDZ7YaYjhqiWV-31" edge="1">
          <mxGeometry relative="1" as="geometry" />
        </mxCell>
        <mxCell id="Liw7ZN7XDZ7YaYjhqiWV-31" value="预算确认" style="rounded=0;whiteSpace=wrap;html=1;fillColor=#97E894;strokeColor=#82b366;" parent="Gr0Zq-AI6Quabplr0KPa-179" vertex="1">
          <mxGeometry x="203" y="571.0000000000001" width="83" height="41" as="geometry" />
        </mxCell>
        <mxCell id="Xso-ELONYzY4eR0CgQhz-1" value="" style="edgeStyle=entityRelationEdgeStyle;rounded=0;orthogonalLoop=1;jettySize=auto;html=1;curved=1;" parent="Gr0Zq-AI6Quabplr0KPa-179" source="Liw7ZN7XDZ7YaYjhqiWV-27" target="Xso-ELONYzY4eR0CgQhz-2" edge="1">
          <mxGeometry relative="1" as="geometry">
            <mxPoint x="54" y="511" as="sourcePoint" />
          </mxGeometry>
        </mxCell>
        <mxCell id="Xso-ELONYzY4eR0CgQhz-2" value="确认/反确认 版本号功能" style="rounded=0;whiteSpace=wrap;html=1;fillColor=#fff2cc;strokeColor=#d6b656;" parent="Gr0Zq-AI6Quabplr0KPa-179" vertex="1">
          <mxGeometry x="380" y="258" width="145" height="33" as="geometry" />
        </mxCell>
        <mxCell id="Xso-ELONYzY4eR0CgQhz-5" value="" style="edgeStyle=entityRelationEdgeStyle;rounded=0;orthogonalLoop=1;jettySize=auto;html=1;curved=1;" parent="Gr0Zq-AI6Quabplr0KPa-179" source="Liw7ZN7XDZ7YaYjhqiWV-27" target="Xso-ELONYzY4eR0CgQhz-6" edge="1">
          <mxGeometry relative="1" as="geometry">
            <mxPoint x="71" y="254" as="sourcePoint" />
            <Array as="points">
              <mxPoint x="314" y="243" />
            </Array>
          </mxGeometry>
        </mxCell>
        <mxCell id="Xso-ELONYzY4eR0CgQhz-6" value="费用总表&lt;div&gt;两个维度&lt;/div&gt;" style="rounded=0;whiteSpace=wrap;html=1;fillColor=#fff2cc;strokeColor=#d6b656;" parent="Gr0Zq-AI6Quabplr0KPa-179" vertex="1">
          <mxGeometry x="383" y="189" width="83" height="41" as="geometry" />
        </mxCell>
        <mxCell id="Xso-ELONYzY4eR0CgQhz-17" value="" style="edgeStyle=entityRelationEdgeStyle;rounded=0;orthogonalLoop=1;jettySize=auto;html=1;curved=1;" parent="Gr0Zq-AI6Quabplr0KPa-179" source="Xso-ELONYzY4eR0CgQhz-6" target="Xso-ELONYzY4eR0CgQhz-18" edge="1">
          <mxGeometry relative="1" as="geometry">
            <mxPoint x="316" y="344" as="sourcePoint" />
          </mxGeometry>
        </mxCell>
        <mxCell id="Xso-ELONYzY4eR0CgQhz-18" value="自己部门填写" style="rounded=0;whiteSpace=wrap;html=1;fillColor=#fff2cc;strokeColor=#d6b656;" parent="Gr0Zq-AI6Quabplr0KPa-179" vertex="1">
          <mxGeometry x="534" y="183" width="83" height="30" as="geometry" />
        </mxCell>
        <mxCell id="Xso-ELONYzY4eR0CgQhz-19" value="" style="edgeStyle=entityRelationEdgeStyle;rounded=0;orthogonalLoop=1;jettySize=auto;html=1;curved=1;" parent="Gr0Zq-AI6Quabplr0KPa-179" source="Liw7ZN7XDZ7YaYjhqiWV-27" target="Xso-ELONYzY4eR0CgQhz-20" edge="1">
          <mxGeometry relative="1" as="geometry">
            <mxPoint x="129" y="461" as="sourcePoint" />
          </mxGeometry>
        </mxCell>
        <mxCell id="Xso-ELONYzY4eR0CgQhz-20" value="利润预算表&lt;div&gt;编制&lt;/div&gt;" style="rounded=0;whiteSpace=wrap;html=1;fillColor=#fff2cc;strokeColor=#d6b656;" parent="Gr0Zq-AI6Quabplr0KPa-179" vertex="1">
          <mxGeometry x="383" y="52" width="83" height="41" as="geometry" />
        </mxCell>
        <mxCell id="Xso-ELONYzY4eR0CgQhz-23" value="" style="edgeStyle=orthogonalEdgeStyle;rounded=0;orthogonalLoop=1;jettySize=auto;html=1;curved=1;" parent="Gr0Zq-AI6Quabplr0KPa-179" source="Liw7ZN7XDZ7YaYjhqiWV-29" target="Xso-ELONYzY4eR0CgQhz-24" edge="1">
          <mxGeometry relative="1" as="geometry">
            <mxPoint x="105" y="445" as="sourcePoint" />
          </mxGeometry>
        </mxCell>
        <mxCell id="Xso-ELONYzY4eR0CgQhz-24" value="财务发起" style="rounded=0;whiteSpace=wrap;html=1;fillColor=#dae8fc;strokeColor=#6c8ebf;" parent="Gr0Zq-AI6Quabplr0KPa-179" vertex="1">
          <mxGeometry x="396" y="486" width="83" height="41" as="geometry" />
        </mxCell>
        <mxCell id="Xso-ELONYzY4eR0CgQhz-25" value="" style="edgeStyle=entityRelationEdgeStyle;rounded=0;orthogonalLoop=1;jettySize=auto;html=1;curved=1;" parent="Gr0Zq-AI6Quabplr0KPa-179" source="Xso-ELONYzY4eR0CgQhz-20" target="Xso-ELONYzY4eR0CgQhz-26" edge="1">
          <mxGeometry relative="1" as="geometry">
            <mxPoint x="343" y="66" as="sourcePoint" />
          </mxGeometry>
        </mxCell>
        <mxCell id="Xso-ELONYzY4eR0CgQhz-26" value="收入预算表&lt;div&gt;编制&lt;/div&gt;" style="rounded=0;whiteSpace=wrap;html=1;fillColor=#fff2cc;strokeColor=#d6b656;" parent="Gr0Zq-AI6Quabplr0KPa-179" vertex="1">
          <mxGeometry x="534" y="18" width="83" height="41" as="geometry" />
        </mxCell>
        <mxCell id="Xso-ELONYzY4eR0CgQhz-31" value="" style="edgeStyle=entityRelationEdgeStyle;rounded=0;orthogonalLoop=1;jettySize=auto;html=1;curved=1;" parent="Gr0Zq-AI6Quabplr0KPa-179" source="Xso-ELONYzY4eR0CgQhz-20" target="Xso-ELONYzY4eR0CgQhz-32" edge="1">
          <mxGeometry relative="1" as="geometry">
            <mxPoint x="339" y="-75" as="sourcePoint" />
          </mxGeometry>
        </mxCell>
        <mxCell id="Xso-ELONYzY4eR0CgQhz-32" value="资产减值损失编制" style="rounded=0;whiteSpace=wrap;html=1;fillColor=#fff2cc;strokeColor=#d6b656;" parent="Gr0Zq-AI6Quabplr0KPa-179" vertex="1">
          <mxGeometry x="534" y="118" width="83" height="41" as="geometry" />
        </mxCell>
        <mxCell id="Xso-ELONYzY4eR0CgQhz-33" value="" style="edgeStyle=entityRelationEdgeStyle;rounded=0;orthogonalLoop=1;jettySize=auto;html=1;curved=1;" parent="Gr0Zq-AI6Quabplr0KPa-179" source="Xso-ELONYzY4eR0CgQhz-26" target="Xso-ELONYzY4eR0CgQhz-34" edge="1">
          <mxGeometry relative="1" as="geometry">
            <mxPoint x="482" y="-175" as="sourcePoint" />
          </mxGeometry>
        </mxCell>
        <mxCell id="Xso-ELONYzY4eR0CgQhz-34" value="融资成本表&lt;div&gt;自动关联&lt;/div&gt;" style="rounded=0;whiteSpace=wrap;html=1;fillColor=#fff2cc;strokeColor=#d6b656;" parent="Gr0Zq-AI6Quabplr0KPa-179" vertex="1">
          <mxGeometry x="685" y="64" width="83" height="41" as="geometry" />
        </mxCell>
        <mxCell id="Xso-ELONYzY4eR0CgQhz-35" value="" style="edgeStyle=entityRelationEdgeStyle;rounded=0;orthogonalLoop=1;jettySize=auto;html=1;curved=1;" parent="Gr0Zq-AI6Quabplr0KPa-179" source="Xso-ELONYzY4eR0CgQhz-20" target="Xso-ELONYzY4eR0CgQhz-36" edge="1">
          <mxGeometry relative="1" as="geometry">
            <mxPoint x="338" y="-38" as="sourcePoint" />
          </mxGeometry>
        </mxCell>
        <mxCell id="Xso-ELONYzY4eR0CgQhz-36" value="成本预算表&lt;div&gt;编制&lt;/div&gt;" style="rounded=0;whiteSpace=wrap;html=1;fillColor=#fff2cc;strokeColor=#d6b656;" parent="Gr0Zq-AI6Quabplr0KPa-179" vertex="1">
          <mxGeometry x="534" y="66" width="83" height="41" as="geometry" />
        </mxCell>
        <mxCell id="Xso-ELONYzY4eR0CgQhz-37" value="" style="edgeStyle=entityRelationEdgeStyle;rounded=0;orthogonalLoop=1;jettySize=auto;html=1;curved=1;" parent="Gr0Zq-AI6Quabplr0KPa-179" source="Xso-ELONYzY4eR0CgQhz-26" target="Xso-ELONYzY4eR0CgQhz-38" edge="1">
          <mxGeometry relative="1" as="geometry">
            <mxPoint x="490" y="-151" as="sourcePoint" />
          </mxGeometry>
        </mxCell>
        <mxCell id="Xso-ELONYzY4eR0CgQhz-38" value="日均资产表&lt;div&gt;自动关联&lt;/div&gt;" style="rounded=0;whiteSpace=wrap;html=1;fillColor=#fff2cc;strokeColor=#d6b656;" parent="Gr0Zq-AI6Quabplr0KPa-179" vertex="1">
          <mxGeometry x="685" y="14" width="83" height="41" as="geometry" />
        </mxCell>
        <mxCell id="Xso-ELONYzY4eR0CgQhz-39" value="" style="edgeStyle=entityRelationEdgeStyle;rounded=0;orthogonalLoop=1;jettySize=auto;html=1;curved=1;" parent="Gr0Zq-AI6Quabplr0KPa-179" source="Xso-ELONYzY4eR0CgQhz-6" target="Xso-ELONYzY4eR0CgQhz-40" edge="1">
          <mxGeometry relative="1" as="geometry">
            <mxPoint x="69" y="-331" as="sourcePoint" />
            <Array as="points">
              <mxPoint x="104" y="-268" />
            </Array>
          </mxGeometry>
        </mxCell>
        <mxCell id="Xso-ELONYzY4eR0CgQhz-40" value="别的部门填写" style="rounded=0;whiteSpace=wrap;html=1;fillColor=#fff2cc;strokeColor=#d6b656;" parent="Gr0Zq-AI6Quabplr0KPa-179" vertex="1">
          <mxGeometry x="534" y="226" width="83" height="26" as="geometry" />
        </mxCell>
        <mxCell id="Xso-ELONYzY4eR0CgQhz-41" value="" style="edgeStyle=entityRelationEdgeStyle;rounded=0;orthogonalLoop=1;jettySize=auto;html=1;curved=1;" parent="Gr0Zq-AI6Quabplr0KPa-179" source="Xso-ELONYzY4eR0CgQhz-40" target="Xso-ELONYzY4eR0CgQhz-42" edge="1">
          <mxGeometry relative="1" as="geometry">
            <mxPoint x="253" y="-254" as="sourcePoint" />
            <Array as="points">
              <mxPoint x="-106" y="-779" />
            </Array>
          </mxGeometry>
        </mxCell>
        <mxCell id="Xso-ELONYzY4eR0CgQhz-42" value="统计在被填写部门上&lt;div&gt;员工薪酬大类&lt;/div&gt;" style="rounded=0;whiteSpace=wrap;html=1;fillColor=#fff2cc;strokeColor=#d6b656;" parent="Gr0Zq-AI6Quabplr0KPa-179" vertex="1">
          <mxGeometry x="677" y="172" width="120" height="41" as="geometry" />
        </mxCell>
        <mxCell id="Xso-ELONYzY4eR0CgQhz-45" value="" style="edgeStyle=entityRelationEdgeStyle;rounded=0;orthogonalLoop=1;jettySize=auto;html=1;curved=1;" parent="Gr0Zq-AI6Quabplr0KPa-179" source="Xso-ELONYzY4eR0CgQhz-40" target="Xso-ELONYzY4eR0CgQhz-46" edge="1">
          <mxGeometry relative="1" as="geometry">
            <mxPoint x="253" y="-254" as="sourcePoint" />
            <Array as="points">
              <mxPoint x="-106" y="-779" />
            </Array>
          </mxGeometry>
        </mxCell>
        <mxCell id="Xso-ELONYzY4eR0CgQhz-46" value="统计在填写部门上&lt;div&gt;除了员工薪酬大类&lt;/div&gt;" style="rounded=0;whiteSpace=wrap;html=1;fillColor=#fff2cc;strokeColor=#d6b656;" parent="Gr0Zq-AI6Quabplr0KPa-179" vertex="1">
          <mxGeometry x="677" y="230" width="120" height="34" as="geometry" />
        </mxCell>
        <mxCell id="Xso-ELONYzY4eR0CgQhz-99" value="" style="edgeStyle=orthogonalEdgeStyle;rounded=0;orthogonalLoop=1;jettySize=auto;html=1;curved=1;" parent="Gr0Zq-AI6Quabplr0KPa-179" source="Xso-ELONYzY4eR0CgQhz-24" target="Xso-ELONYzY4eR0CgQhz-100" edge="1">
          <mxGeometry relative="1" as="geometry">
            <mxPoint x="153" y="-128" as="sourcePoint" />
          </mxGeometry>
        </mxCell>
        <mxCell id="Xso-ELONYzY4eR0CgQhz-100" value="部门选择预算版本数据" style="rounded=0;whiteSpace=wrap;html=1;fillColor=#dae8fc;strokeColor=#6c8ebf;" parent="Gr0Zq-AI6Quabplr0KPa-179" vertex="1">
          <mxGeometry x="553" y="521" width="83" height="41" as="geometry" />
        </mxCell>
        <mxCell id="Xso-ELONYzY4eR0CgQhz-101" value="" style="edgeStyle=orthogonalEdgeStyle;rounded=0;orthogonalLoop=1;jettySize=auto;html=1;curved=1;" parent="Gr0Zq-AI6Quabplr0KPa-179" source="Xso-ELONYzY4eR0CgQhz-100" target="Xso-ELONYzY4eR0CgQhz-102" edge="1">
          <mxGeometry relative="1" as="geometry">
            <mxPoint x="317" y="-161" as="sourcePoint" />
          </mxGeometry>
        </mxCell>
        <mxCell id="Xso-ELONYzY4eR0CgQhz-102" value="财务经理审批" style="rounded=0;whiteSpace=wrap;html=1;fillColor=#dae8fc;strokeColor=#6c8ebf;" parent="Gr0Zq-AI6Quabplr0KPa-179" vertex="1">
          <mxGeometry x="677" y="535" width="83" height="41" as="geometry" />
        </mxCell>
        <mxCell id="Xso-ELONYzY4eR0CgQhz-103" value="" style="edgeStyle=orthogonalEdgeStyle;rounded=0;orthogonalLoop=1;jettySize=auto;html=1;curved=1;" parent="Gr0Zq-AI6Quabplr0KPa-179" source="Xso-ELONYzY4eR0CgQhz-102" target="Xso-ELONYzY4eR0CgQhz-104" edge="1">
          <mxGeometry relative="1" as="geometry">
            <mxPoint x="440" y="-161" as="sourcePoint" />
          </mxGeometry>
        </mxCell>
        <mxCell id="Xso-ELONYzY4eR0CgQhz-104" value="总经理审批" style="rounded=0;whiteSpace=wrap;html=1;fillColor=#dae8fc;strokeColor=#6c8ebf;" parent="Gr0Zq-AI6Quabplr0KPa-179" vertex="1">
          <mxGeometry x="822" y="591" width="83" height="41" as="geometry" />
        </mxCell>
        <mxCell id="Xso-ELONYzY4eR0CgQhz-105" value="" style="edgeStyle=orthogonalEdgeStyle;rounded=0;orthogonalLoop=1;jettySize=auto;html=1;curved=1;entryX=0;entryY=0.5;entryDx=0;entryDy=0;" parent="Gr0Zq-AI6Quabplr0KPa-179" source="Liw7ZN7XDZ7YaYjhqiWV-31" target="Xso-ELONYzY4eR0CgQhz-106" edge="1">
          <mxGeometry relative="1" as="geometry">
            <mxPoint x="-62" y="-81" as="sourcePoint" />
          </mxGeometry>
        </mxCell>
        <mxCell id="Xso-ELONYzY4eR0CgQhz-106" value="确认预算表" style="rounded=0;whiteSpace=wrap;html=1;fillColor=#ffe6cc;strokeColor=#d79b00;" parent="Gr0Zq-AI6Quabplr0KPa-179" vertex="1">
          <mxGeometry x="390" y="599.0000000000001" width="83" height="41" as="geometry" />
        </mxCell>
        <mxCell id="Xso-ELONYzY4eR0CgQhz-110" value="" style="edgeStyle=entityRelationEdgeStyle;rounded=0;orthogonalLoop=1;jettySize=auto;html=1;curved=1;" parent="Gr0Zq-AI6Quabplr0KPa-179" source="Liw7ZN7XDZ7YaYjhqiWV-27" target="Xso-ELONYzY4eR0CgQhz-111" edge="1">
          <mxGeometry relative="1" as="geometry">
            <mxPoint x="-4" y="-153" as="sourcePoint" />
          </mxGeometry>
        </mxCell>
        <mxCell id="Xso-ELONYzY4eR0CgQhz-111" value="部门预算状态" style="rounded=0;whiteSpace=wrap;html=1;fillColor=#fff2cc;strokeColor=#d6b656;" parent="Gr0Zq-AI6Quabplr0KPa-179" vertex="1">
          <mxGeometry x="380" y="308" width="83" height="41" as="geometry" />
        </mxCell>
        <mxCell id="Xso-ELONYzY4eR0CgQhz-112" value="" style="edgeStyle=entityRelationEdgeStyle;rounded=0;orthogonalLoop=1;jettySize=auto;html=1;curved=1;" parent="Gr0Zq-AI6Quabplr0KPa-179" source="Xso-ELONYzY4eR0CgQhz-111" target="Xso-ELONYzY4eR0CgQhz-113" edge="1">
          <mxGeometry relative="1" as="geometry">
            <mxPoint x="169" y="-407" as="sourcePoint" />
          </mxGeometry>
        </mxCell>
        <mxCell id="Xso-ELONYzY4eR0CgQhz-113" value="填写中/已确认&lt;div&gt;已提交/已确定&lt;/div&gt;" style="rounded=0;whiteSpace=wrap;html=1;fillColor=#fff2cc;strokeColor=#d6b656;" parent="Gr0Zq-AI6Quabplr0KPa-179" vertex="1">
          <mxGeometry x="503" y="308" width="83" height="41" as="geometry" />
        </mxCell>
      </root>
    </mxGraphModel>
  </diagram>
</mxfile>
